<svg xmlns="http://www.w3.org/2000/svg" width="640" height="800" viewBox="0 0 640 800" role="img" aria-labelledby="title desc">
  <title id="title">Portrait placeholder for Sophie Turner</title>
  <desc id="desc">Warm abstract professional portrait placeholder in Brightwater brand colors.</desc>
  <rect width="640" height="800" rx="56" fill="#FFFCF7"/>
  <rect width="640" height="800" rx="56" fill="url(#bg)"/>
  <circle cx="320" cy="282" r="108" fill="#E3C9B9"/>
  <path d="M213 254c16-86 58-133 113-133 62 0 104 51 111 139-73-26-139-26-224-6Z" fill="#9B8977"/>
  <path d="M202 298c-13-73 8-129 58-165 16 89 82 142 180 160 0 78-51 136-120 136-59 0-105-46-118-131Z" fill="#9B8977" opacity=".32"/>
  <path d="M179 740c18-145 85-232 141-232s123 87 141 232H179Z" fill="#A8B8A3"/>
  <path d="M230 552c27 37 57 55 90 55s63-18 90-55c-24-27-54-42-90-42s-66 15-90 42Z" fill="#FFFCF7"/>
  <circle cx="282" cy="289" r="9" fill="#26302E"/>
  <circle cx="358" cy="289" r="9" fill="#26302E"/>
  <path d="M289 342c21 14 41 14 62 0" fill="none" stroke="#26302E" stroke-width="9" stroke-linecap="round"/>
  <defs>
    <linearGradient id="bg" x1="96" x2="548" y1="54" y2="746" gradientUnits="userSpaceOnUse">
      <stop stop-color="#F8F5EF"/>
      <stop offset=".58" stop-color="#F1ECE1"/>
      <stop offset="1" stop-color="#DDE7D9"/>
    </linearGradient>
  </defs>
</svg>
