<svg xmlns="http://www.w3.org/2000/svg" width="640" height="800" viewBox="0 0 640 800" role="img" aria-labelledby="title desc">
  <title id="title">Portrait placeholder for Amelia Hart</title>
  <desc id="desc">Warm abstract professional portrait placeholder in Brightwater brand colors.</desc>
  <rect width="640" height="800" rx="56" fill="#FFFCF7"/>
  <rect width="640" height="800" rx="56" fill="url(#bg)"/>
  <circle cx="320" cy="262" r="108" fill="#E8D8C7"/>
  <path d="M203 290c-8-108 52-181 119-181s124 62 116 181c-42-38-87-43-118-43s-75 5-117 43Z" fill="#5F8F8A"/>
  <path d="M173 740c20-155 93-242 147-242s127 87 147 242H173Z" fill="#A8B8A3"/>
  <path d="M229 546c25 34 55 51 91 51s66-17 91-51c-24-31-54-48-91-48s-67 17-91 48Z" fill="#F8F5EF"/>
  <circle cx="282" cy="276" r="9" fill="#26302E"/>
  <circle cx="358" cy="276" r="9" fill="#26302E"/>
  <path d="M288 330c18 15 46 15 64 0" fill="none" stroke="#26302E" stroke-width="9" stroke-linecap="round"/>
  <defs>
    <linearGradient id="bg" x1="96" x2="548" y1="54" y2="746" gradientUnits="userSpaceOnUse">
      <stop stop-color="#F8F5EF"/>
      <stop offset=".55" stop-color="#E7EEE4"/>
      <stop offset="1" stop-color="#DCE9E7"/>
    </linearGradient>
  </defs>
</svg>
