<svg xmlns="http://www.w3.org/2000/svg" width="640" height="800" viewBox="0 0 640 800" role="img" aria-labelledby="title desc">
  <title id="title">Portrait placeholder for Eleanor Price</title>
  <desc id="desc">Warm abstract professional portrait placeholder in Brightwater brand colors.</desc>
  <rect width="640" height="800" rx="56" fill="#FFFCF7"/>
  <rect width="640" height="800" rx="56" fill="url(#bg)"/>
  <path d="M199 291c-2-105 49-176 121-176s123 71 121 176c-32-42-72-64-121-64s-89 22-121 64Z" fill="#6A5F55"/>
  <circle cx="320" cy="284" r="106" fill="#DDBCA7"/>
  <path d="M199 286c17-105 61-157 128-157 49 0 88 31 112 92-78-4-142-24-193-72-27 35-42 81-47 137Z" fill="#6A5F55"/>
  <path d="M171 740c22-150 91-237 149-237s127 87 149 237H171Z" fill="#5F8F8A"/>
  <path d="M240 546h160l-80 64-80-64Z" fill="#F8F5EF"/>
  <circle cx="282" cy="290" r="9" fill="#26302E"/>
  <circle cx="358" cy="290" r="9" fill="#26302E"/>
  <path d="M290 344c19 13 41 13 60 0" fill="none" stroke="#26302E" stroke-width="9" stroke-linecap="round"/>
  <defs>
    <linearGradient id="bg" x1="96" x2="548" y1="54" y2="746" gradientUnits="userSpaceOnUse">
      <stop stop-color="#FFFCF7"/>
      <stop offset=".52" stop-color="#E7EEE4"/>
      <stop offset="1" stop-color="#E0ECEA"/>
    </linearGradient>
  </defs>
</svg>
